<?xml version="1.0" standalone="no"?>
<!DOCTYPE svg PUBLIC "-//W3C//DTD SVG 20010904//EN"
 "http://www.w3.org/TR/2001/REC-SVG-20010904/DTD/svg10.dtd">
<svg version="1.0" xmlns="http://www.w3.org/2000/svg"
 width="2382.000000pt" height="800.000000pt" viewBox="0 0 2382.000000 800.000000"
 preserveAspectRatio="xMidYMid meet">

<g transform="translate(0.000000,800.000000) scale(0.100000,-0.100000)"
fill="#fff" stroke="none">
<path d="M11198 7975 c-79 -45 -84 -161 -18 -420 41 -158 65 -226 126 -346
127 -249 302 -427 446 -454 64 -12 71 -29 76 -179 7 -220 -27 -521 -69 -612
-54 -114 -256 -301 -403 -373 -159 -78 -316 -96 -469 -53 -149 42 -325 152
-461 288 -96 95 -113 109 -145 119 l-23 7 28 -53 c35 -67 219 -249 322 -320
98 -68 223 -125 340 -156 128 -33 299 -35 413 -5 138 37 271 114 413 238 47
41 91 74 99 74 8 0 43 -22 79 -49 154 -117 291 -192 441 -243 78 -26 111 -32
218 -36 252 -9 378 44 658 281 100 85 163 168 186 247 5 19 -10 9 -66 -46
-176 -169 -277 -246 -384 -295 -193 -87 -385 -94 -561 -19 -108 47 -341 238
-404 333 -79 117 -105 262 -105 588 0 264 -10 239 122 319 102 63 225 176 303
282 128 172 260 497 260 640 0 57 -23 151 -44 183 -46 70 -167 71 -398 3 -141
-42 -145 -43 -293 -42 -135 0 -159 3 -235 27 -245 79 -398 103 -452 72z"/>
<path d="M11362 5129 c-69 -34 -166 -132 -220 -222 -49 -81 -124 -254 -170
-392 -134 -398 -224 -970 -241 -1535 -10 -312 -15 -329 -123 -445 -112 -120
-180 -143 -225 -76 -34 50 -30 98 33 479 49 293 56 351 52 442 -3 113 -18 155
-68 191 -60 45 -186 32 -290 -29 -138 -81 -221 -190 -362 -472 l-88 -175 0 52
c0 49 37 248 81 428 34 144 22 200 -48 224 -34 12 -50 13 -98 2 -95 -21 -145
-81 -193 -231 -49 -150 -82 -352 -82 -500 0 -183 -55 -300 -194 -411 -107 -85
-176 -26 -176 152 0 37 25 221 55 410 54 336 65 470 46 522 -17 45 -145 74
-213 48 -30 -11 -78 -59 -90 -91 -42 -106 -91 -347 -119 -583 -12 -100 -26
-200 -31 -221 -12 -49 -115 -160 -203 -217 -186 -123 -401 -97 -478 56 -36 73
-55 254 -38 365 23 152 86 294 150 339 64 46 124 39 147 -15 13 -32 13 -45 -1
-119 -26 -138 1 -202 87 -212 53 -6 93 12 133 59 40 47 53 84 65 186 31 251
-72 433 -259 461 -56 8 -158 -3 -223 -25 -152 -50 -329 -249 -392 -439 -28
-84 -60 -111 -148 -121 -66 -8 -66 -8 -93 106 -43 180 -99 293 -184 373 -122
114 -279 141 -473 81 -145 -46 -256 -151 -344 -329 -94 -190 -128 -389 -105
-608 14 -127 39 -216 89 -310 91 -176 249 -277 431 -277 142 0 251 48 362 159
86 86 134 169 174 297 44 140 65 164 140 164 30 0 56 -5 62 -12 5 -7 17 -53
27 -103 10 -49 29 -118 42 -153 82 -220 278 -352 523 -352 149 0 290 50 460
163 92 61 98 62 128 4 8 -17 35 -52 60 -78 80 -85 194 -110 325 -69 59 18 95
40 209 128 49 37 50 37 93 -45 53 -99 129 -127 222 -83 60 29 96 107 129 280
36 183 183 563 259 668 40 55 71 67 97 36 14 -17 7 -93 -32 -339 -30 -188 -32
-386 -5 -469 42 -126 118 -187 245 -194 133 -7 242 29 355 116 69 53 79 51
108 -27 17 -45 26 -56 62 -72 104 -47 220 2 281 121 12 25 43 125 69 222 50
195 98 332 158 453 54 107 115 202 135 209 26 10 52 -3 59 -30 4 -14 -11 -130
-32 -257 -63 -380 -53 -534 40 -643 72 -84 200 -114 335 -79 97 25 154 58 242
141 44 41 84 74 90 74 5 0 43 -34 85 -75 103 -102 189 -145 307 -152 276 -18
475 152 591 504 15 45 33 86 39 92 7 5 52 16 100 24 115 18 115 13 1 -152 -52
-75 -70 -142 -54 -200 17 -65 42 -84 102 -79 43 5 56 12 99 54 72 70 135 159
233 324 119 203 120 205 133 205 19 0 91 -103 135 -194 46 -93 57 -156 35
-185 -14 -19 -18 -19 -72 -6 -106 25 -216 -15 -257 -94 -32 -62 -31 -166 2
-226 53 -93 163 -145 295 -138 64 3 86 10 167 51 68 34 120 52 193 67 62 12
127 33 172 55 125 62 300 247 337 358 18 55 21 188 5 235 -12 36 -51 53 -91
40 -16 -6 -61 -52 -114 -120 -93 -116 -198 -218 -225 -218 -13 0 -18 15 -23
74 -13 142 -52 233 -190 443 -46 70 -92 152 -101 181 -24 73 -16 158 23 248
79 180 59 244 -78 244 -84 0 -177 -46 -217 -107 -9 -14 -55 -121 -102 -237
l-86 -211 -35 -3 c-19 -2 -80 -14 -135 -27 -55 -13 -125 -27 -155 -30 -70 -8
-84 5 -100 94 -46 257 -197 438 -398 480 -200 41 -424 -60 -554 -252 -108
-159 -155 -319 -167 -568 -7 -154 -9 -169 -34 -211 -50 -85 -150 -157 -201
-144 -72 18 -73 118 -4 519 62 367 68 482 28 561 -38 75 -66 91 -158 91 -68 0
-86 -4 -147 -34 -140 -68 -278 -239 -398 -494 -36 -77 -67 -131 -70 -123 -3 7
-9 60 -12 117 -7 99 -6 106 17 136 12 17 62 82 110 145 129 171 311 456 383
603 123 251 184 472 192 695 6 161 -8 251 -50 344 -74 162 -225 220 -375 145z
m116 -322 c32 -34 45 -116 39 -237 -14 -249 -118 -541 -290 -814 -60 -97 -89
-128 -103 -113 -11 11 33 343 72 538 19 98 52 243 75 323 76 280 140 374 207
303z m-4630 -1574 c5 -10 12 -54 15 -98 12 -149 54 -265 127 -348 35 -39 40
-51 40 -94 -1 -87 -67 -216 -134 -261 -133 -90 -276 20 -306 235 -11 84 7 315
31 378 25 68 86 154 128 182 41 28 87 30 99 6z m5859 -38 c9 -167 41 -285 100
-362 48 -63 73 -120 73 -169 0 -87 -108 -243 -180 -257 -96 -20 -192 38 -229
137 -59 158 -52 349 19 539 37 98 118 169 185 164 29 -2 30 -4 32 -52z"/>
<path d="M21220 5151 c-83 -26 -175 -118 -239 -240 -48 -92 -119 -306 -166
-496 -42 -171 -46 -197 -89 -508 -38 -282 -39 -284 -128 -306 -81 -20 -206
-84 -276 -142 -200 -162 -360 -494 -362 -748 -1 -91 -48 -174 -139 -247 -65
-51 -100 -56 -135 -19 -63 68 -60 180 19 642 57 334 62 384 42 443 -14 42 -80
80 -137 80 -50 0 -135 -45 -159 -83 -44 -72 -114 -361 -132 -545 -24 -256 -28
-275 -63 -347 -42 -86 -134 -189 -180 -205 -42 -14 -82 -4 -101 23 -28 40 -19
201 24 443 79 439 84 525 33 623 -70 134 -266 106 -440 -63 -115 -110 -210
-265 -297 -478 -25 -61 -35 -78 -40 -65 -11 28 2 124 46 327 65 304 63 337
-20 360 -99 26 -237 -51 -270 -152 -39 -118 -95 -453 -106 -633 -9 -158 -7
-154 -92 -239 -89 -92 -152 -126 -231 -126 -106 0 -165 61 -193 199 -9 50 -9
90 0 194 26 279 121 1003 176 1342 31 191 43 424 26 507 -24 115 -82 163 -196
163 -56 0 -76 -4 -101 -22 -55 -39 -71 -97 -119 -435 -93 -650 -154 -912 -292
-1263 -99 -249 -188 -402 -302 -516 -78 -77 -134 -112 -216 -134 -160 -41
-260 53 -257 245 0 69 60 413 167 970 57 293 76 434 82 600 5 135 3 166 -16
243 -56 233 -150 312 -371 311 -120 0 -210 -25 -317 -88 -129 -76 -301 -267
-370 -411 -64 -136 -67 -224 -7 -295 48 -57 98 -39 164 60 47 70 170 217 207
247 72 57 146 93 194 93 37 0 50 -5 75 -31 l29 -30 -1 -142 c0 -134 -5 -167
-87 -607 -47 -256 -102 -553 -122 -660 -41 -221 -53 -381 -36 -488 35 -225
136 -367 301 -424 94 -33 267 -33 362 0 144 50 303 187 413 355 63 99 96 162
165 327 29 69 57 130 63 135 5 6 7 -20 3 -70 -15 -210 -17 -334 -8 -385 44
-234 200 -373 432 -387 145 -9 291 41 414 142 31 25 60 45 65 45 5 0 25 -34
44 -75 40 -84 78 -115 139 -115 83 0 138 44 167 134 11 34 36 124 55 201 97
388 271 736 345 690 19 -11 12 -121 -18 -314 -37 -236 -45 -337 -31 -430 25
-175 112 -268 260 -279 127 -9 253 37 375 137 39 31 75 60 82 64 8 5 30 -16
62 -61 81 -111 153 -148 271 -140 85 6 189 55 282 132 37 31 72 56 77 56 5 0
37 -29 72 -65 37 -39 85 -76 118 -93 49 -24 68 -27 151 -27 88 0 101 3 162 33
47 23 81 49 115 89 63 73 122 133 131 133 4 0 23 -28 42 -61 50 -88 136 -164
207 -185 119 -35 222 -3 361 112 46 38 94 78 108 88 l24 20 69 -70 c164 -167
381 -209 577 -113 66 32 174 137 230 221 25 38 61 112 80 164 46 128 59 151
97 171 31 16 141 23 154 9 4 -3 -22 -46 -56 -96 -74 -108 -91 -145 -91 -205 0
-57 21 -100 60 -120 60 -31 93 -14 191 100 96 112 167 216 229 334 27 53 60
109 73 125 l24 30 48 -65 c62 -84 102 -164 120 -241 20 -86 14 -91 -89 -83
-139 12 -227 -37 -255 -140 -25 -93 -2 -185 65 -251 52 -52 124 -76 228 -76
59 0 83 5 141 32 111 51 158 68 267 96 141 36 142 37 146 180 2 64 1 132 -3
151 -6 33 -8 35 -38 29 -76 -15 -71 -19 -78 74 -10 135 -39 204 -173 407 -100
153 -116 188 -123 273 -5 55 -1 77 22 140 51 143 66 195 61 216 -8 29 -69 57
-138 62 -48 4 -67 0 -112 -22 -30 -15 -66 -42 -80 -60 -31 -41 -93 -180 -130
-293 -15 -45 -37 -97 -49 -115 -28 -41 -82 -78 -116 -78 -14 0 -73 -11 -131
-25 -118 -28 -163 -31 -178 -12 -5 6 -15 39 -22 72 -75 367 -318 564 -605 490
-166 -43 -289 -137 -379 -290 -98 -168 -136 -311 -136 -515 0 -177 -27 -238
-143 -325 -69 -53 -104 -57 -154 -19 -56 43 -76 95 -81 210 -5 124 5 164 89
340 259 546 430 1110 457 1504 25 357 -51 600 -201 645 -54 16 -116 18 -157 6z
m89 -349 c5 -9 14 -64 19 -120 19 -181 -13 -440 -88 -727 -47 -181 -172 -552
-194 -573 -44 -45 -40 64 34 778 28 270 92 571 136 638 18 28 78 31 93 4z
m-638 -1772 c3 -124 9 -263 13 -310 8 -84 7 -86 -29 -157 -45 -90 -126 -168
-184 -178 -56 -9 -106 16 -134 69 -20 37 -22 56 -22 191 0 172 16 240 87 377
64 125 182 241 238 236 l25 -3 6 -225z m1348 206 c7 -8 17 -61 22 -117 15
-156 37 -210 144 -358 32 -43 32 -82 -1 -170 -92 -248 -320 -255 -401 -11 -14
44 -18 87 -18 210 0 173 16 245 75 348 48 83 147 137 179 98z"/>
<path d="M970 4894 c-101 -7 -261 -35 -365 -65 -264 -74 -516 -222 -571 -337
-26 -53 -31 -162 -9 -218 36 -95 95 -97 242 -6 190 116 338 182 503 223 127
31 386 34 495 5 284 -75 466 -300 505 -626 28 -230 -6 -554 -81 -781 -119
-358 -343 -574 -662 -640 -121 -25 -388 -27 -407 -4 -15 19 -10 88 31 415 49
394 107 714 190 1055 44 180 38 230 -33 266 -116 59 -271 11 -329 -102 -51
-100 -160 -669 -234 -1217 -61 -457 -65 -641 -16 -711 47 -65 215 -96 526 -96
247 0 330 13 528 82 202 69 342 158 487 310 214 222 339 493 406 883 25 147
30 469 10 608 -62 420 -269 724 -585 857 -169 72 -429 112 -631 99z"/>
<path d="M5415 4844 c-397 -46 -657 -125 -817 -252 -192 -150 -274 -423 -209
-695 33 -141 74 -200 156 -227 84 -28 196 25 224 107 14 38 13 45 -8 99 -77
198 -64 324 40 418 77 71 238 125 380 129 l64 2 3 -49 c3 -43 -39 -609 -54
-729 -3 -26 -12 -53 -19 -61 -8 -7 -49 -15 -101 -19 -160 -11 -215 -61 -217
-194 -2 -129 46 -178 187 -192 41 -4 79 -10 83 -14 16 -16 2 -181 -27 -328
-35 -181 -72 -267 -149 -351 -75 -82 -143 -113 -246 -113 -68 0 -88 5 -133 28
-72 38 -133 95 -200 189 -82 115 -149 142 -200 79 -32 -39 -54 -108 -54 -169
-1 -93 39 -168 145 -269 178 -171 393 -227 657 -173 282 58 446 242 545 613
29 105 61 287 71 396 11 113 -3 108 291 113 248 4 249 4 306 32 83 40 112 92
112 203 0 67 -4 87 -21 110 -41 56 -55 58 -343 58 -237 0 -265 2 -274 17 -8
12 -4 113 17 375 34 439 34 441 59 466 19 19 29 20 276 13 141 -3 294 -11 341
-16 47 -5 141 -13 210 -16 114 -6 130 -5 172 14 64 28 91 81 92 177 1 78 -14
117 -55 148 -79 58 -389 87 -914 85 -198 0 -373 -3 -390 -4z"/>
<path d="M19668 4715 c-53 -29 -90 -154 -68 -234 30 -111 129 -121 181 -20 27
55 26 162 -2 209 -37 61 -62 71 -111 45z"/>
<path d="M19910 4593 c-49 -33 -85 -96 -94 -163 -8 -55 16 -109 57 -128 24
-12 33 -11 72 8 50 24 78 63 95 132 30 118 -48 208 -130 151z"/>
<path d="M19412 4518 c-58 -63 -56 -203 5 -270 25 -27 84 -24 113 7 47 50 36
223 -17 265 -34 26 -74 25 -101 -2z"/>
<path d="M8903 4314 c-60 -22 -117 -81 -142 -148 -69 -186 35 -354 219 -349
69 1 119 22 177 75 58 54 84 108 91 184 9 116 -42 205 -137 239 -54 19 -152
18 -208 -1z"/>
<path d="M19983 4270 c-66 -40 -108 -140 -84 -203 13 -33 69 -62 103 -54 59
15 111 85 124 165 8 50 -8 80 -51 98 -45 18 -54 18 -92 -6z"/>
<path d="M19575 4226 c-93 -43 -167 -135 -181 -224 -9 -58 22 -88 102 -97 99
-11 151 -33 216 -91 48 -43 68 -54 94 -54 58 0 74 26 74 123 0 168 -56 304
-143 346 -56 27 -100 26 -162 -3z"/>
<path d="M2891 3595 c-262 -59 -455 -286 -520 -611 -39 -198 -36 -341 10 -499
84 -282 294 -438 588 -436 225 1 464 116 641 309 104 113 141 215 120 330 -12
69 -37 106 -74 110 -24 3 -47 -16 -164 -135 -144 -145 -190 -179 -334 -241
-71 -30 -94 -36 -158 -36 -61 0 -87 6 -135 28 -75 34 -95 52 -95 86 0 36 23
54 91 74 95 27 234 103 299 162 128 119 190 260 190 432 0 152 -33 252 -111
337 -77 84 -216 120 -348 90z m94 -331 c43 -20 65 -67 65 -136 0 -110 -86
-225 -215 -289 -118 -58 -155 -30 -135 102 23 152 89 276 170 317 53 26 71 27
115 6z"/>
<path d="M7822 1141 c-64 -22 -99 -53 -112 -100 -11 -39 -14 -629 -4 -656 7
-17 74 -55 97 -55 17 0 27 79 27 207 0 95 10 123 45 123 70 0 125 -48 172
-148 18 -41 47 -94 64 -118 45 -66 110 -92 153 -61 18 13 17 17 -13 81 -17 37
-31 69 -31 72 0 2 -18 42 -41 89 -46 96 -46 111 2 171 44 54 59 95 59 157 0
106 -76 202 -189 242 -60 20 -164 19 -229 -4z m216 -121 c65 -40 88 -113 58
-185 -25 -58 -125 -90 -212 -66 -55 15 -68 47 -62 143 5 65 9 75 37 100 27 24
40 28 89 28 39 0 67 -6 90 -20z"/>
<path d="M12759 1145 c-14 -7 -31 -26 -38 -42 -24 -52 -261 -736 -261 -753 0
-22 48 -33 80 -20 35 14 59 55 83 141 25 85 40 94 158 93 150 -2 154 -5 224
-170 19 -46 47 -64 102 -64 35 0 35 0 29 34 -9 45 -238 701 -260 744 -16 30
-50 53 -79 52 -7 -1 -24 -7 -38 -15z m70 -233 c24 -48 61 -167 61 -198 0 -24
-2 -24 -90 -24 -88 0 -90 0 -90 24 0 56 74 251 91 241 5 -4 18 -23 28 -43z"/>
<path d="M13560 1120 c-30 -30 -40 -63 -40 -138 0 -111 0 -110 -88 -109 -110
1 -166 -33 -213 -131 -19 -39 -23 -64 -24 -142 0 -90 2 -99 35 -160 95 -176
294 -174 388 4 l27 51 0 320 0 320 -32 3 c-22 2 -38 -3 -53 -18z m-105 -352
c45 -20 65 -75 65 -176 0 -76 -3 -94 -23 -123 -51 -76 -114 -77 -155 -1 -48
87 -35 245 24 291 30 24 52 26 89 9z"/>
<path d="M10302 1037 c-12 -13 -27 -39 -32 -58 -14 -47 -13 -403 1 -473 24
-116 97 -196 180 -196 44 0 89 32 89 65 0 27 -15 41 -56 49 -49 11 -74 45 -84
117 -22 151 -9 207 54 224 47 13 68 40 64 80 -3 28 -6 30 -50 35 -27 3 -54 12
-60 18 -7 7 -15 45 -18 85 -5 72 -5 72 -35 75 -22 2 -37 -4 -53 -21z"/>
<path d="M9405 871 c-47 -22 -89 -64 -104 -104 -16 -40 -14 -117 4 -167 20
-58 19 -116 -5 -169 -29 -62 -33 -107 -20 -180 12 -65 48 -150 79 -185 50 -56
167 -74 241 -36 87 44 124 163 78 249 -35 66 -73 84 -176 78 -81 -5 -82 -4
-88 20 -11 43 22 72 113 102 45 15 94 38 109 51 85 80 86 229 2 307 -57 53
-159 68 -233 34z m120 -87 c23 -9 45 -57 45 -99 0 -92 -70 -136 -127 -79 -23
23 -25 31 -21 86 4 48 9 65 27 79 24 20 48 24 76 13z m53 -549 c37 -44 20
-104 -36 -123 -57 -19 -120 22 -137 90 -5 20 -1 32 15 48 19 19 30 22 78 18
45 -4 60 -10 80 -33z"/>
<path d="M8495 862 c-46 -22 -101 -80 -122 -130 -8 -18 -16 -61 -20 -95 -21
-232 151 -391 326 -300 64 33 81 55 65 81 -12 18 -42 20 -131 7 -49 -7 -53 -6
-83 24 -23 22 -30 38 -28 58 3 27 5 28 83 33 128 9 189 60 189 160 0 129 -156
220 -279 162z m142 -104 c31 -29 30 -72 -2 -103 -19 -20 -34 -25 -74 -25 -77
0 -100 35 -62 94 38 57 98 72 138 34z"/>
<path d="M8956 870 c-59 -18 -96 -73 -96 -145 0 -77 36 -124 141 -186 71 -41
85 -59 69 -89 -19 -36 -41 -39 -114 -17 -74 22 -98 17 -104 -20 -4 -26 59 -79
108 -93 129 -36 238 27 248 145 7 83 -24 126 -139 193 -72 43 -89 64 -73 90
13 20 40 20 107 1 35 -10 53 -10 65 -3 30 19 26 49 -13 78 -68 52 -130 66
-199 46z"/>
<path d="M9862 855 c-35 -18 -54 -35 -58 -51 -9 -37 13 -57 55 -50 139 20 138
20 166 -8 18 -18 25 -35 23 -54 -3 -27 -4 -27 -90 -32 -93 -6 -121 -18 -162
-73 -31 -42 -33 -131 -4 -186 45 -83 169 -116 258 -69 96 52 136 147 128 308
-3 72 -9 94 -32 133 -59 101 -178 135 -284 82z m188 -300 c21 -25 5 -86 -30
-117 -48 -44 -109 -37 -136 14 -19 37 -10 82 19 103 29 20 130 20 147 0z"/>
<path d="M10745 862 c-47 -22 -99 -78 -120 -129 -38 -90 -26 -236 25 -317 69
-108 227 -138 320 -60 33 29 36 41 16 69 -13 18 -18 18 -85 5 -53 -10 -77 -10
-95 -2 -35 16 -60 57 -52 87 6 24 10 25 74 25 128 1 192 54 192 160 0 67 -23
108 -81 147 -54 35 -136 42 -194 15z m142 -104 c31 -29 30 -72 -2 -103 -19
-20 -34 -25 -74 -25 -89 0 -105 52 -36 118 41 38 79 42 112 10z"/>
<path d="M11215 873 c-33 -9 -74 -43 -90 -73 -8 -16 -15 -53 -15 -82 0 -73 31
-116 120 -168 84 -49 106 -75 86 -105 -18 -27 -47 -30 -122 -9 -68 18 -94 11
-94 -26 0 -22 52 -68 97 -87 109 -45 242 22 258 130 13 85 -22 137 -136 203
-62 36 -79 51 -79 69 0 43 22 49 100 29 67 -17 71 -17 88 -1 15 16 15 20 2 45
-29 51 -149 93 -215 75z"/>
<path d="M11891 854 c-38 -19 -62 -40 -82 -72 -43 -68 -52 -105 -47 -201 4
-67 10 -97 31 -137 30 -60 81 -107 132 -124 92 -30 225 17 225 80 0 41 -17 46
-101 30 -84 -16 -113 -6 -135 46 -21 51 -9 61 85 66 130 8 188 63 179 173 -6
68 -37 111 -102 141 -67 31 -119 30 -185 -2z m154 -99 c39 -38 32 -86 -16
-110 -37 -20 -113 -19 -129 0 -20 24 -4 80 31 109 39 33 82 34 114 1z"/>
<path d="M13885 866 c-91 -40 -138 -121 -143 -248 -5 -105 13 -167 64 -227 53
-61 104 -84 176 -79 80 6 132 43 175 127 29 56 33 72 33 145 0 99 -18 159 -66
214 -62 73 -163 101 -239 68z m134 -109 c50 -42 68 -194 32 -273 -21 -46 -54
-74 -87 -74 -32 0 -81 45 -95 88 -17 51 -15 159 4 204 28 66 100 93 146 55z"/>
<path d="M14438 866 c-55 -20 -85 -42 -118 -88 -41 -56 -53 -108 -48 -203 5
-91 24 -136 88 -210 22 -25 40 -54 40 -63 0 -36 38 -79 82 -93 36 -12 44 -19
46 -44 5 -37 -19 -55 -69 -55 -57 0 -55 -16 5 -45 49 -24 59 -26 90 -15 47 15
76 53 76 98 0 30 -9 44 -55 89 -31 30 -53 58 -50 63 3 5 22 14 43 21 77 25
111 63 91 100 -9 17 -17 20 -47 15 -120 -20 -142 -19 -167 4 -32 30 -48 82
-48 155 0 73 17 130 46 150 25 17 86 19 140 4 46 -13 74 -5 83 24 13 41 -96
108 -173 107 -10 -1 -35 -7 -55 -14z"/>
<path d="M14875 861 c-79 -36 -132 -120 -142 -226 -16 -168 76 -310 207 -323
94 -9 167 38 222 141 33 60 32 200 0 272 -58 128 -179 185 -287 136z m130
-103 c40 -31 55 -77 55 -168 0 -89 -13 -125 -56 -159 -54 -43 -112 -14 -139
70 -33 98 -4 236 56 266 34 18 52 16 84 -9z"/>
<path d="M15425 869 c-118 -34 -190 -205 -151 -357 30 -118 101 -186 205 -199
93 -11 191 46 177 103 -7 25 -10 26 -49 21 -136 -20 -131 -20 -158 2 -31 24
-45 67 -28 87 7 9 32 14 73 14 88 0 143 30 175 93 34 69 24 127 -32 183 -58
58 -133 76 -212 53z m125 -109 c30 -30 27 -83 -6 -109 -39 -31 -118 -29 -139
3 -20 30 -8 63 35 99 38 32 82 35 110 7z"/>
<path d="M15847 859 c-65 -34 -94 -129 -63 -202 17 -41 52 -72 134 -122 72
-43 86 -69 56 -100 -19 -19 -57 -17 -137 6 -42 12 -49 11 -64 -4 -16 -16 -16
-20 -3 -45 9 -15 36 -38 60 -52 61 -34 174 -36 217 -4 50 37 73 81 73 142 0
78 -25 113 -121 169 -87 51 -102 64 -97 89 6 33 33 39 93 20 70 -22 105 -15
105 18 0 30 -56 79 -109 95 -55 16 -101 13 -144 -10z"/>
</g>
</svg>
